<svg width="14" height="15" viewBox="0 0 14 15" fill="none" xmlns="http://www.w3.org/2000/svg">
<path d="M13.5898 0.75L9.13281 0.777344C8.91406 0.777344 8.75 0.941406 8.75 1.16016V2.0625C8.75 2.28125 8.91406 2.47266 9.13281 2.47266L11.1562 2.39062L11.2109 2.44531L3.58203 10.0742C3.52734 10.1289 3.47266 10.2109 3.47266 10.293C3.47266 10.4023 3.52734 10.4844 3.58203 10.5391L4.21094 11.168C4.26562 11.2227 4.34766 11.2773 4.45703 11.2773C4.53906 11.2773 4.62109 11.2227 4.67578 11.168L12.3047 3.53906L12.3594 3.59375L12.2773 5.61719C12.2773 5.83594 12.4688 6.02734 12.6875 6.02734V6H13.5898C13.8086 6 13.9727 5.83594 13.9727 5.61719L14 1.16016C14 0.941406 13.8086 0.75 13.5898 0.75ZM11.8125 8.625H11.375C11.1289 8.625 10.9375 8.84375 10.9375 9.0625V13.2734C10.9375 13.3828 10.8555 13.4375 10.7734 13.4375H1.47656C1.36719 13.4375 1.3125 13.3828 1.3125 13.2734V3.97656C1.3125 3.89453 1.36719 3.8125 1.47656 3.8125H5.6875C5.90625 3.8125 6.125 3.62109 6.125 3.375V2.9375C6.125 2.71875 5.90625 2.5 5.6875 2.5H1.3125C0.574219 2.5 0 3.10156 0 3.8125V13.4375C0 14.1758 0.574219 14.75 1.3125 14.75H10.9375C11.6484 14.75 12.25 14.1758 12.25 13.4375V9.0625C12.25 8.84375 12.0312 8.625 11.8125 8.625Z" fill="#194DD9"/>
</svg>
