<svg width="200" height="120" viewBox="0 0 200 120" fill="none" xmlns="http://www.w3.org/2000/svg">
<mask id="mask0_1_506" style="mask-type:alpha" maskUnits="userSpaceOnUse" x="88" y="53" width="87" height="18">
<path d="M88.0952 53.4707H175V70.8454H88.0952V53.4707Z" fill="white"/>
</mask>
<g mask="url(#mask0_1_506)">
<path fill-rule="evenodd" clip-rule="evenodd" d="M167.374 57.7032C167.374 55.9041 169.032 54.8462 170.871 54.8462C172.089 54.8491 173.263 55.3012 174.169 56.116L174.682 55.3442C173.636 54.4398 172.295 53.9508 170.913 53.9698C168.399 53.9698 166.417 55.4523 166.417 57.7808C166.417 62.3706 174.041 61.3363 174.041 65.5023C174.041 67.2814 172.615 68.4256 170.656 68.4256C169.185 68.3986 167.781 67.8065 166.735 66.7721L166.118 67.4715C167.325 68.6509 168.946 69.3118 170.633 69.3134C173.354 69.3134 175.001 67.6215 175.001 65.3977C174.997 60.5366 167.374 61.6145 167.374 57.6762V57.7023V57.7032ZM154.329 61.9808H160.27V61.1087H154.329V55.0311H161.572V54.1861H153.411V69.0012H161.961V68.1552H154.331V61.9808H154.329ZM141.059 53.4866C136.717 53.4343 133.154 56.8904 133.101 61.2064C133.099 61.2936 133.1 61.3808 133.102 61.468C133.082 63.4215 133.748 65.3201 134.982 66.834C134.932 67.6007 134.717 68.3474 134.352 69.0237C133.987 69.6999 133.481 70.2897 132.868 70.7532C136.509 71.2817 138.499 69.3788 138.596 69.2863C139.392 69.542 140.223 69.672 141.059 69.6718C145.583 69.6718 149.021 66.0736 149.021 61.4715C149.124 57.1564 145.688 53.5765 141.347 53.4727C141.25 53.4707 141.153 53.4704 141.056 53.4718L141.059 53.4866ZM124.499 61.5954H120.462V55.0311H123.869C125.062 55.0311 125.532 55.1393 125.956 55.3285C126.498 55.5774 126.954 55.982 127.265 56.4908C127.577 56.9996 127.73 57.5895 127.705 58.1855C127.693 60.1974 126.458 61.5954 124.499 61.5954ZM125.665 62.3131V62.2704C127.413 61.8849 128.649 60.3012 128.649 58.1855C128.683 57.4568 128.506 56.7339 128.139 56.1032C127.773 55.4726 127.232 54.9611 126.582 54.6299C125.983 54.3334 125.285 54.1852 123.896 54.1852H119.534V69.0003H120.463V62.4361H124.737L128.272 68.9994H129.361L126.015 62.8215C125.919 62.6401 125.803 62.4694 125.67 62.3122H125.666L125.665 62.3131ZM107.013 61.9538H112.955V61.1079H107.01V55.032H114.246V54.1861H106.085V69.0012H114.634V68.1552H107.011L107.014 61.9547L107.013 61.9538ZM98.466 61.1515H89.0082V54.2H88.0951V68.9994H89.0082V61.9965H98.466V68.9994H99.3826V54.1861H98.466V61.1506V61.1515Z" fill="white"/>
</g>
<mask id="mask1_1_506" style="mask-type:alpha" maskUnits="userSpaceOnUse" x="25" y="53" width="57" height="21">
<path d="M25 53.8999H81.0032V73.529H25V53.8999Z" fill="white"/>
</mask>
<g mask="url(#mask1_1_506)">
<path fill-rule="evenodd" clip-rule="evenodd" d="M42.8858 69.1813C42.3075 69.1813 41.753 69.411 41.3441 69.8199C40.9352 70.2288 40.7055 70.7833 40.7055 71.3616C40.7074 71.648 40.7656 71.9313 40.8769 72.1952C40.9882 72.4591 41.1504 72.6985 41.3542 72.8998C41.558 73.101 41.7995 73.2601 42.0648 73.3681C42.3302 73.476 42.6142 73.5306 42.9006 73.5287C43.4785 73.5287 44.0328 73.2993 44.4416 72.8908C44.8504 72.4823 45.0804 71.9282 45.0808 71.3502C45.0787 70.773 44.8476 70.2202 44.4381 69.8133C44.0286 69.4065 43.4743 69.1788 42.8971 69.1805H42.8858V69.1813ZM75.0974 65.9302C74.7076 65.9276 74.3186 65.9502 73.9314 65.9956V65.9537C74.3674 65.5438 74.7573 65.0886 75.0974 64.5985L80.9256 56.4008V54.1508H69.5605V57.2781H75.0808C75.4706 57.2799 75.8605 57.259 76.2477 57.2162V57.2581C75.8102 57.6658 75.4192 58.1206 75.0817 58.6142L69.2919 66.7639V69.0575H81.0041V65.9302H75.0974ZM61.4003 69.0566H65.0718V54.1508H61.4003V69.0566ZM53.2724 63.5738C53.2724 65.1374 52.2459 65.972 50.6718 65.972C49.0985 65.972 48.0686 65.1374 48.0686 63.5738V54.1499H44.3971V63.5747C44.3971 66.934 46.8721 69.3078 50.6919 69.3078C54.5116 69.3078 56.9474 66.934 56.9474 63.5747V54.1499H53.2715V63.5747L53.2724 63.5738ZM39.2055 65.9284C40.1554 64.6505 40.6776 63.1052 40.6977 61.513C40.6977 57.2354 37.4849 53.8997 32.8488 53.8997C28.2137 53.8997 25 57.2354 25 61.513C25 64.4171 26.4023 66.9183 28.7064 68.2395C30.5055 65.6101 28.8503 68.0232 30.6686 65.3311C30.0649 64.8996 29.578 64.3247 29.2519 63.6582C28.9258 62.9917 28.7707 62.2545 28.8006 61.513C28.8006 59.0729 30.4794 57.2354 32.8497 57.2354C35.1581 57.2354 36.8988 59.0729 36.8988 61.513C36.9022 62.1764 36.7698 62.8335 36.5099 63.4438L35.0186 62.0075L32.9622 64.3238L34.4858 65.6406C36.9765 67.9569 34.6689 65.8029 37.1709 68.0808L38.725 69.5171L40.8006 67.1999L39.2064 65.9302L39.2055 65.9284Z" fill="white"/>
</g>
</svg>
