<svg width="200" height="120" viewBox="0 0 200 120" fill="none" xmlns="http://www.w3.org/2000/svg">
<path d="M167.837 57.4318V62.0168H161.443V57.4318H158.296V69.5506H161.443V64.6577H167.837V69.5506H171V57.4318H167.837Z" fill="white"/>
<path fill-rule="evenodd" clip-rule="evenodd" d="M112.764 57.1573C113.773 57.1573 114.833 57.692 115.355 58.7937L120.504 69.5516H117.155L116.028 66.9917H109.499L108.372 69.5516H105.023L110.172 58.7937C110.694 57.692 111.754 57.1573 112.764 57.1573ZM112.511 60.1706L110.576 64.5613H114.951L113.016 60.1706C112.966 60.0248 112.848 59.9924 112.764 59.9924C112.68 59.9924 112.579 60.041 112.511 60.1706Z" fill="white"/>
<path d="M77.849 55.2455C76.3682 55.2455 75.4259 56.007 74.7361 57.5299L70.6304 66.6352L66.5247 57.5299C65.8348 56.007 64.8925 55.2455 63.4118 55.2455C62.032 55.2455 60.6017 56.2014 60.6017 58.259V69.5515H63.7483V58.583L67.8876 67.6235C68.4429 68.8872 69.3347 69.6811 70.6304 69.6811C71.926 69.6811 72.8178 68.8872 73.3731 67.6235L77.5124 58.583V69.5515H80.659V58.2752C80.659 56.2014 79.2287 55.2455 77.849 55.2455Z" fill="white"/>
<path d="M86.1763 66.9907C86.0249 66.9907 85.9071 66.8773 85.9071 66.7315V64.5767H93.7651V62.0978H85.9071V60.2508C85.9071 60.105 86.0249 59.9916 86.1763 59.9916H93.9502V57.4318H84.6283C83.5346 57.4318 82.7606 58.3066 82.7606 59.2301V67.7198C82.7606 68.6433 83.5514 69.5182 84.6283 69.5182H93.9502V66.9583H86.1763V66.9907Z" fill="white"/>
<path d="M99.2998 69.5506V60.2671C99.2998 60.1213 99.4175 60.0079 99.569 60.0079H107.343V57.448H98.0209C96.9272 57.448 96.1532 58.3229 96.1532 59.2464V69.5506H99.2998Z" fill="white"/>
<path fill-rule="evenodd" clip-rule="evenodd" d="M149.546 57.2548C154.308 57.2548 156.209 59.2314 156.209 63.4762C156.209 67.6562 154.274 69.6652 149.512 69.6652H148.469C143.707 69.6652 141.772 67.6562 141.772 63.4762C141.772 59.2314 143.657 57.2548 148.436 57.2548H149.546ZM148.485 67.1534H149.495C152.103 67.1534 153.146 66.0193 153.146 63.4756V63.4594C153.146 60.9968 152.17 59.7817 149.495 59.7817H148.485C145.726 59.7817 144.834 60.9968 144.834 63.4594V63.4756C144.834 66.0193 145.861 67.1534 148.485 67.1534Z" fill="white"/>
<path fill-rule="evenodd" clip-rule="evenodd" d="M126.745 55.5365H132.988C137.632 55.5365 139.5 57.8047 139.517 61.7579C139.517 62.3736 139.466 62.9406 139.382 63.4753C138.894 66.2782 137.178 67.9955 132.82 67.9955H131.457V69.5509H128.31V67.9955H126.93C122.572 67.9955 120.856 66.2782 120.368 63.4753C120.267 62.9406 120.233 62.3736 120.233 61.7579C120.233 57.8047 122.084 55.5365 126.745 55.5365ZM128.291 65.4353H126.844C124.707 65.4353 123.95 64.6738 123.478 63.4749C123.293 63.005 123.293 62.4218 123.293 61.7575C123.293 59.1814 124.538 58.0797 126.356 58.0797H128.291V65.4353ZM136.252 63.4749C135.781 64.6738 135.007 65.4353 132.887 65.4353H131.44V58.0797H133.375C135.192 58.0797 136.437 59.1652 136.437 61.7575C136.437 62.4218 136.437 63.005 136.252 63.4749Z" fill="white"/>
<path fill-rule="evenodd" clip-rule="evenodd" d="M43.1848 63.3785V50.8546C49.4106 51.5837 54.2398 56.7034 54.2567 62.8924C54.2567 69.5999 48.6029 75.0436 41.6367 75.0436C41.2497 75.0436 40.8627 75.0274 40.4757 74.995V64.4964C40.4757 64.4316 40.5262 64.3668 40.6103 64.3668H42.1584C42.7136 64.3668 43.1848 63.9293 43.1848 63.3785ZM42.913 69.5353C42.038 69.5353 41.3313 68.8549 41.3313 68.0124C41.3313 67.1699 42.038 66.4894 42.913 66.4894C43.788 66.4894 44.4947 67.1699 44.4947 68.0124C44.4947 68.8549 43.788 69.5353 42.913 69.5353ZM45.0342 68.0124C45.0342 68.8549 45.7409 69.5353 46.6159 69.5353C47.4909 69.5353 48.1976 68.8549 48.1976 68.0124C48.1976 67.1699 47.4909 66.4894 46.6159 66.4894C45.7409 66.4894 45.0342 67.1699 45.0342 68.0124ZM48.7356 68.0124C48.7356 68.8549 49.4423 69.5353 50.3173 69.5353C51.1922 69.5353 51.899 68.8549 51.899 68.0124C51.899 67.1699 51.1922 66.4894 50.3173 66.4894C49.4423 66.4894 48.7356 67.1699 48.7356 68.0124Z" fill="white"/>
<path fill-rule="evenodd" clip-rule="evenodd" d="M29.0002 62.909C29.0002 56.2016 34.654 50.7578 41.6202 50.7578H41.6538V62.7794C41.6538 62.8604 41.5865 62.909 41.5192 62.909H40.4591H39.9375C39.3991 62.9252 38.9616 63.3627 38.9447 63.8811V74.7848C33.2574 73.6021 29.0002 68.7416 29.0002 62.909ZM37.6151 59.2477C37.6151 60.0902 38.3218 60.7707 39.1968 60.7707C40.0718 60.7707 40.7785 60.0902 40.7785 59.2477C40.7785 58.4053 40.0718 57.7248 39.1968 57.7248C38.3218 57.7248 37.6151 58.4053 37.6151 59.2477Z" fill="white"/>
</svg>
