<svg width="200" height="120" viewBox="0 0 200 120" fill="none" xmlns="http://www.w3.org/2000/svg">
<path d="M68.7739 50.8572C67.3032 50.8572 65.5592 52.3827 64.1209 54.9472C62.6218 57.6033 61.7274 60.8912 61.7274 63.7465C61.7274 67.9267 63.9026 72.1422 68.7739 72.1422C73.6407 72.1422 75.8202 67.9267 75.8202 63.7465C75.8202 60.8912 74.9264 57.6033 73.4346 54.9472C71.9835 52.3827 70.2404 50.8572 68.7739 50.8572Z" fill="white"/>
<path d="M106.824 57.1284H111.757V71.0017H117.042V57.1284H121.974V51.9971H106.825L106.824 57.1284Z" fill="white"/>
<path d="M133.248 57.1291H141V51.9979H133.249C126.127 51.9979 122.324 55.8178 122.324 61.5001C122.324 67.1825 126.127 71.0024 133.249 71.0024H141V65.8712H133.248C129.953 65.8712 127.785 64.6002 127.785 61.5001C127.785 58.4001 129.953 57.1291 133.248 57.1291Z" fill="white"/>
<path d="M96.0764 51.9971L93.2591 63.3406L90.4414 51.9971H81.105V71.0017H86.3899V55.5434L90.2293 71.0017H96.2887L100.131 55.5338V71.0017H105.415V51.9971H96.0764Z" fill="white"/>
</svg>
