<svg width="200" height="120" viewBox="0 0 200 120" fill="none" xmlns="http://www.w3.org/2000/svg">
<path d="M34.0005 67.3965V54.7684H37.3509V56.1739C37.7184 55.6414 38.2116 55.208 38.7868 54.9121C39.3818 54.6181 40.0377 54.4688 40.7013 54.4763C41.1757 54.4602 41.6476 54.5511 42.0821 54.7421V57.6752C41.8214 57.5623 41.5494 57.4773 41.2709 57.4214C40.9799 57.3651 40.6842 57.3371 40.3878 57.3376C39.7653 57.3297 39.1529 57.4956 38.6193 57.8165C38.0792 58.1557 37.641 58.6347 37.3509 59.2028V67.3965H34.0005Z" fill="white"/>
<path d="M48.7309 67.6392C47.8294 67.6566 46.9394 67.4352 46.151 66.9975C45.408 66.5775 44.7991 65.9557 44.3944 65.2041C43.966 64.4028 43.7494 63.5052 43.765 62.5966V54.7693H47.0605V62.1129C47.0438 62.4679 47.0988 62.8225 47.2221 63.1557C47.3454 63.489 47.5346 63.7939 47.7784 64.0524C48.0318 64.2962 48.3323 64.4857 48.6616 64.6092C48.9908 64.7327 49.3417 64.7877 49.6928 64.7707C50.2115 64.7825 50.7254 64.6691 51.191 64.4403C51.6241 64.222 52.0007 63.9065 52.2919 63.5184V54.7693H55.6111V67.3973H52.2919V66.3798C51.3023 67.2273 50.0329 67.6763 48.7309 67.6392Z" fill="white"/>
<path d="M64.042 67.5671C62.9029 67.5791 61.7826 67.2767 60.8041 66.6931C59.8469 66.1231 59.0511 65.3179 58.4923 64.3538C57.9129 63.358 57.6151 62.2232 57.6307 61.0711C57.62 59.936 57.9105 58.8184 58.4727 57.8323C59.0348 56.8462 59.8484 56.0272 60.8304 55.4586C61.839 54.8796 62.9847 54.5827 64.1473 54.599C64.7559 54.5998 65.3612 54.6885 65.9446 54.8624C66.5203 55.0339 67.0702 55.2828 67.5791 55.6023V50.4279L70.8984 49.8724V67.397H67.6269V66.3555C66.6061 67.1586 65.3405 67.5863 64.042 67.5671ZM64.5757 64.7297C65.1492 64.7357 65.7183 64.6292 66.2509 64.416C66.754 64.215 67.2084 63.9088 67.5839 63.5181V58.5976C67.2032 58.2198 66.7475 57.9261 66.2461 57.7357C65.712 57.5291 65.1435 57.4259 64.5709 57.4315C63.9136 57.4243 63.2659 57.5894 62.6922 57.9104C62.1442 58.2175 61.6881 58.6656 61.3712 59.2082C61.052 59.7789 60.8855 60.4225 60.888 61.0765C60.8905 61.7305 61.062 62.3728 61.3856 62.9411C61.7118 63.4824 62.1706 63.9315 62.7186 64.246C63.2827 64.5718 63.9244 64.739 64.5757 64.7297Z" fill="white"/>
<path d="M77.5135 67.6143C76.6943 67.6292 75.8821 67.4599 75.137 67.1187C74.4811 66.8182 73.9199 66.3437 73.5145 65.7467C73.1218 65.1506 72.919 64.4493 72.9329 63.7354C72.9085 63.1894 73.0196 62.6457 73.2564 62.1531C73.4932 61.6605 73.8482 61.2343 74.2899 60.9124C75.1945 60.242 76.4541 59.9068 78.0687 59.9068C79.1269 59.8989 80.1788 60.0706 81.1798 60.4144V59.495C81.1798 58.7766 80.9548 58.2187 80.5025 57.8452C80.0502 57.4717 79.3873 57.2873 78.5162 57.2873C77.9339 57.2972 77.3554 57.3832 76.7955 57.5435C76.0652 57.7497 75.3522 58.013 74.6632 58.3312L73.4666 55.8579C74.3949 55.448 75.3554 55.1156 76.3384 54.8642C77.2249 54.6403 78.1355 54.5261 79.0498 54.5242C80.7777 54.5242 82.1107 54.9328 83.0488 55.7501C83.9869 56.5674 84.4552 57.7183 84.4536 59.2028V67.3965H81.1702V66.4986C80.6665 66.8789 80.0993 67.1667 79.495 67.3486C78.8507 67.5317 78.1833 67.6213 77.5135 67.6143ZM76.0776 63.6636C76.0734 63.8938 76.1292 64.121 76.2396 64.323C76.3499 64.525 76.511 64.6946 76.707 64.8153C77.2107 65.1202 77.794 65.2679 78.3822 65.2391C78.8936 65.2439 79.4033 65.1786 79.8971 65.0451C80.3559 64.9158 80.7868 64.7022 81.1678 64.4154V62.5718C80.7652 62.3954 80.3424 62.2691 79.909 62.1958C79.4444 62.1218 78.9747 62.0857 78.5042 62.0881C77.8836 62.0531 77.266 62.196 76.7237 62.4999C76.5228 62.619 76.3574 62.7897 76.2445 62.9943C76.1318 63.1989 76.0758 63.43 76.0824 63.6636H76.0776Z" fill="white"/>
<path d="M98.2005 72.5806C97.2471 72.584 96.2961 72.4828 95.3646 72.2789C94.5092 72.0938 93.6798 71.8043 92.8949 71.4169L94.0676 68.8501C94.7271 69.1711 95.4164 69.4269 96.1257 69.6139C96.7823 69.7835 97.4577 69.8696 98.1359 69.8701C99.1043 69.8701 99.8438 69.6554 100.354 69.226C100.862 68.7974 101.118 68.1628 101.118 67.3225V66.3288C100.113 67.0637 98.8974 67.455 97.6525 67.4446C96.5284 67.4533 95.4222 67.1628 94.4474 66.6028C93.4726 66.0428 92.6642 65.2334 92.1051 64.2576C91.5346 63.2665 91.2412 62.1401 91.2556 60.9964C91.2412 59.8558 91.5392 58.733 92.1171 57.7497C92.6798 56.789 93.4865 55.9943 94.4552 55.4462C95.4669 54.8741 96.6126 54.5815 97.7745 54.5986C98.3704 54.6025 98.9626 54.6912 99.5335 54.862C100.101 55.0258 100.64 55.2753 101.132 55.6019V54.7686H104.427V67.3727C104.427 69.0377 103.89 70.3218 102.815 71.2253C101.739 72.1288 100.201 72.5806 98.2005 72.5806ZM98.1766 64.6551C98.74 64.6617 99.2992 64.5584 99.823 64.351C100.308 64.1597 100.746 63.8666 101.108 63.4914V58.5733C100.738 58.2073 100.297 57.9219 99.8111 57.7353C99.2931 57.5377 98.7428 57.4386 98.1885 57.4431C97.535 57.4349 96.8909 57.6002 96.3219 57.922C95.7817 58.2292 95.3312 58.6725 95.0152 59.2078C94.6922 59.7538 94.5264 60.3788 94.5366 61.0132C94.5283 61.6671 94.6935 62.3115 95.0152 62.8808C95.3266 63.4262 95.7787 63.8777 96.3243 64.1882C96.8891 64.5063 97.5284 64.6683 98.1766 64.6575V64.6551Z" fill="white"/>
<path d="M111.042 67.6159C110.223 67.6307 109.412 67.4613 108.668 67.1203C108.012 66.8198 107.45 66.3453 107.045 65.7483C106.652 65.1521 106.449 64.4509 106.463 63.737C106.439 63.1909 106.55 62.6473 106.787 62.1547C107.024 61.662 107.379 61.2357 107.82 60.914C108.725 60.2435 109.985 59.9083 111.599 59.9083C112.657 59.9005 113.709 60.0721 114.71 60.4159V59.4965C114.71 58.7782 114.483 58.2203 114.031 57.8467C113.578 57.4732 112.918 57.2888 112.044 57.2888C111.462 57.2988 110.883 57.385 110.324 57.5451C109.594 57.7508 108.882 58.0143 108.194 58.3328L106.997 55.8594C107.924 55.4492 108.883 55.1161 109.864 54.8633C110.751 54.6396 111.663 54.5254 112.578 54.5233C114.306 54.5233 115.638 54.932 116.575 55.7492C117.511 56.5666 117.98 57.7175 117.982 59.2019V67.398H114.701V66.5001C114.197 66.8807 113.63 67.1685 113.025 67.3502C112.38 67.5339 111.712 67.6234 111.042 67.6159ZM109.606 63.6652C109.601 63.8953 109.657 64.1226 109.768 64.3245C109.878 64.5264 110.039 64.6962 110.235 64.8168C110.738 65.1225 111.322 65.2701 111.91 65.2407C112.421 65.2455 112.93 65.1803 113.423 65.0467C113.883 64.9181 114.314 64.7045 114.696 64.417V62.5733C114.292 62.3966 113.869 62.2703 113.435 62.1974C112.97 62.1233 112.5 62.0873 112.03 62.0896C111.409 62.0553 110.792 62.1981 110.249 62.5015C110.051 62.6225 109.889 62.7941 109.779 62.9986C109.67 63.2031 109.616 63.4331 109.625 63.6652H109.606Z" fill="white"/>
<path d="M120.489 67.3977V54.7696H123.808V55.7274C124.559 55.0891 125.478 54.6817 126.454 54.5543C127.431 54.4268 128.423 54.5848 129.312 55.0091C129.952 55.3339 130.502 55.8127 130.912 56.4027C131.412 55.8017 132.042 55.3212 132.754 54.9971C133.494 54.6698 134.295 54.5065 135.104 54.5182C135.975 54.5014 136.833 54.7242 137.585 55.1623C138.302 55.5857 138.89 56.1977 139.282 56.9318C139.707 57.7334 139.919 58.6301 139.9 59.5369V67.3905H136.576V60.0541C136.576 59.228 136.363 58.5791 135.934 58.1027C135.716 57.8633 135.448 57.6749 135.148 57.5508C134.849 57.4267 134.526 57.3698 134.202 57.3843C133.73 57.3798 133.263 57.4838 132.838 57.6884C132.408 57.9079 132.044 58.2386 131.785 58.6461C131.799 58.7923 131.816 58.9383 131.833 59.082C131.849 59.2354 131.857 59.3897 131.857 59.5441V67.3977H128.53V60.0541C128.53 59.228 128.317 58.5791 127.889 58.1027C127.67 57.8633 127.401 57.6749 127.102 57.5508C126.803 57.4267 126.48 57.3698 126.156 57.3843C125.691 57.3763 125.231 57.4754 124.811 57.6741C124.408 57.8758 124.062 58.1764 123.806 58.548V67.3977H120.489Z" fill="white"/>
<path d="M148.618 67.6395C147.445 67.6534 146.287 67.3628 145.26 66.7958C144.232 66.2289 143.369 65.405 142.755 64.4046C142.15 63.4053 141.84 62.2561 141.857 61.0884C141.843 59.9448 142.131 58.8177 142.692 57.8215C143.254 56.8253 144.069 55.9954 145.055 55.4161C146.045 54.8331 147.176 54.5317 148.326 54.5445C149.467 54.5244 150.59 54.8309 151.562 55.4281C152.506 56.0183 153.275 56.8508 153.79 57.8392C154.344 58.917 154.623 60.1157 154.601 61.3279V62.2018H145.248C145.389 62.6991 145.635 63.161 145.966 63.5571C146.301 63.9582 146.724 64.2776 147.201 64.4909C147.697 64.7113 148.234 64.8231 148.776 64.8189C149.303 64.8223 149.828 64.7356 150.327 64.5627C150.788 64.4095 151.21 64.1579 151.564 63.8252L153.744 65.8126C152.316 67.0332 150.486 67.6807 148.609 67.6299L148.618 67.6395ZM145.2 59.8337H151.356C151.236 59.354 151.016 58.9046 150.712 58.5144C150.424 58.1428 150.055 57.8401 149.635 57.6285C149.213 57.4197 148.749 57.3123 148.278 57.3149C147.793 57.3078 147.313 57.4109 146.873 57.6165C146.456 57.8167 146.093 58.1158 145.818 58.4881C145.526 58.8915 145.316 59.3488 145.2 59.8337Z" fill="white"/>
<path d="M161.458 67.6394C160.38 67.6473 159.307 67.4965 158.273 67.1917C157.344 66.9244 156.469 66.493 155.691 65.9179L157.34 63.6886C157.993 64.1344 158.697 64.501 159.436 64.7805C160.076 65.0165 160.753 65.1389 161.434 65.142C162.05 65.17 162.663 65.0415 163.215 64.7685C163.657 64.5163 163.879 64.189 163.88 63.7868C163.886 63.6356 163.855 63.4851 163.79 63.3487C163.724 63.2122 163.626 63.0938 163.505 63.0039C163.147 62.7683 162.735 62.6259 162.308 62.5896L159.881 62.2353C158.637 62.0405 157.688 61.6318 157.034 61.0093C156.706 60.6918 156.449 60.3086 156.28 59.8848C156.111 59.461 156.033 59.0062 156.052 58.5503C156.033 57.7886 156.26 57.0409 156.696 56.4168C157.16 55.7899 157.795 55.3102 158.525 55.0352C159.406 54.6979 160.343 54.5353 161.287 54.5564C162.208 54.5548 163.126 54.6846 164.012 54.9419C164.899 55.2057 165.737 55.6099 166.496 56.1391L164.895 58.294C164.274 57.8908 163.602 57.5727 162.897 57.3483C162.281 57.1572 161.641 57.0588 160.997 57.0561C160.496 57.0355 159.999 57.1531 159.561 57.3962C159.395 57.4803 159.254 57.6086 159.156 57.767C159.058 57.9253 159.005 58.1077 159.003 58.294C159 58.4481 159.035 58.6005 159.105 58.7379C159.174 58.8753 159.277 58.9934 159.403 59.0818C159.8 59.3266 160.247 59.4765 160.712 59.5199L163.134 59.86C164.394 60.0371 165.352 60.441 166.006 61.0716C166.331 61.3779 166.587 61.7497 166.758 62.1623C166.929 62.575 167.011 63.0193 166.999 63.466C167.015 64.2455 166.761 65.0065 166.281 65.6209C165.758 66.2724 165.079 66.7807 164.307 67.0982C163.405 67.4745 162.435 67.6588 161.458 67.6394Z" fill="white"/>
<path d="M82.6427 49.0687L80.2973 46.722L76.9654 50.0558L79.3108 52.4024L82.6427 49.0687Z" fill="white"/>
</svg>
