<svg width="200" height="120" viewBox="0 0 200 120" fill="none" xmlns="http://www.w3.org/2000/svg">
<path d="M70.9339 54.8392C71.6072 55.6946 72.1772 56.6238 72.6324 57.6083L59.7215 66.9598L54.3257 63.6363V59.638L59.7215 62.9615L70.9339 54.8392Z" fill="white"/>
<path d="M48.8191 63.3535C48.8191 63.1741 48.8236 62.9959 48.8325 62.8187L45.5625 62.6613C45.5514 62.8909 45.5447 63.1228 45.5447 63.3568C45.5433 65.1852 45.9093 66.9957 46.6217 68.6847C47.3341 70.3738 48.3789 71.908 49.6962 73.1993L52.0157 70.9213C51.0017 69.9291 50.1973 68.7496 49.6487 67.4509C49.1002 66.1521 48.8182 64.7597 48.8191 63.3535Z" fill="white"/>
<path d="M59.7185 52.6438C59.901 52.6438 60.0824 52.6504 60.2627 52.6591L60.4263 49.445C60.1919 49.4341 59.9559 49.4286 59.7185 49.4286C57.8568 49.4264 56.0131 49.7855 54.2932 50.4853C52.5732 51.1852 51.0109 52.2119 49.6959 53.5067L52.0154 55.7858C53.0253 54.7892 54.2258 53.9985 55.5477 53.4593C56.8697 52.9201 58.2871 52.6429 59.7185 52.6438Z" fill="white"/>
<path d="M59.7193 74.064C59.5368 74.064 59.3554 74.064 59.174 74.0498L59.0104 77.2629C59.2456 77.2745 59.4819 77.2804 59.7193 77.2804C61.5802 77.2823 63.423 76.9229 65.1421 76.2229C66.8611 75.5229 68.4224 74.4959 69.7364 73.2012L67.4214 70.9232C66.4113 71.9193 65.2109 72.7095 63.8892 73.2485C62.5675 73.7876 61.1504 74.0647 59.7193 74.064Z" fill="white"/>
<path d="M65.862 54.5131L68.6177 52.5172C66.0989 50.5131 62.9548 49.4222 59.7137 49.4278V52.6441C61.9084 52.6414 64.0522 53.2931 65.862 54.5131Z" fill="white"/>
<path d="M73.892 63.3537C73.8938 62.517 73.8193 61.6817 73.6694 60.858L70.6187 63.0671C70.6187 63.1623 70.6187 63.2574 70.6187 63.3537C70.6195 64.85 70.3002 66.3299 69.6818 67.6973C69.0632 69.0646 68.1591 70.289 67.0281 71.2911L69.2286 73.6807C70.6989 72.3765 71.8738 70.7832 72.6772 69.0042C73.4807 67.2251 73.8945 65.3 73.892 63.3537Z" fill="white"/>
<path d="M59.7189 74.0639C58.1959 74.0644 56.6897 73.7506 55.2979 73.1429C53.9062 72.5352 52.6598 71.647 51.6396 70.5359L49.2088 72.6969C50.536 74.1418 52.1575 75.2965 53.9681 76.0861C55.7787 76.8756 57.7379 77.2825 59.7189 77.2802V74.0639Z" fill="white"/>
<path d="M52.4097 55.4167L50.2104 53.0271C48.7396 54.3311 47.5643 55.9243 46.7605 57.7034C45.9567 59.4824 45.5425 61.4076 45.5447 63.3541H48.8191C48.8185 61.8578 49.1377 60.3779 49.7563 59.0106C50.3748 57.6432 51.2788 56.4188 52.4097 55.4167Z" fill="white"/>
<path d="M127.339 57.393L131.394 54.4905H117.822V71.932H131.394V69.0295H121.694V64.5618H129.969V61.6593H121.694V57.393H127.339Z" fill="white"/>
<path d="M108.688 61.2853H103.976V57.392H111.496L115.549 54.4807H100.105V71.9222H108.189C112.722 71.9222 115.323 69.9266 115.323 66.4463C115.323 63.1167 112.967 61.2853 108.688 61.2853ZM108.015 69.0188H103.976V64.186H108.015C110.467 64.186 111.616 64.9959 111.616 66.6024C111.616 68.2089 110.393 69.0188 108.015 69.0188Z" fill="white"/>
<path d="M141.37 54.4878H133.982V71.9292H137.855V66.9884H141.37C146.084 66.9884 149 64.5788 149 60.7288C149 56.8788 146.084 54.4878 141.37 54.4878ZM141.289 64.0837H137.855V57.3925H141.289C143.768 57.3925 145.137 58.5814 145.137 60.7394C145.137 62.8974 143.768 64.0837 141.289 64.0837Z" fill="white"/>
<path d="M94.2952 67.8132C93.2948 68.3394 92.1741 68.6119 91.0366 68.6054C87.6321 68.6054 85.1623 66.2442 85.1623 62.9929C85.1623 59.7414 87.6321 57.3751 91.0366 57.3751C92.2644 57.3549 93.4666 57.7165 94.4678 58.4074L97.1766 56.4694L96.9934 56.3429C95.4132 54.9934 93.302 54.2786 90.8853 54.2786C88.2641 54.2786 85.8873 55.1353 84.1903 56.6939C83.3322 57.4964 82.6537 58.4621 82.1967 59.5308C81.7398 60.5994 81.5144 61.748 81.5346 62.9051C81.5165 64.0739 81.7409 65.2342 82.1944 66.317C82.6479 67.3997 83.3213 68.3824 84.1744 69.2067C85.8793 70.8272 88.2508 71.72 90.8534 71.72C93.5728 71.72 95.9497 70.7988 97.559 69.1215L95.1344 67.3668L94.2952 67.8132Z" fill="white"/>
</svg>
