<svg xmlns="http://www.w3.org/2000/svg" width="20" height="20" viewBox="0 0 20 20" fill="none">
    <g clip-path="url(#clip0_161_2387)">
        <path d="M10 0C15.5226 0 20 4.4774 20 10C20 15.5226 15.5224 20 10 20C4.4776 20 0 15.5238 0 10C0 4.4762 4.4768 0 10 0Z" fill="#53AE94"/>
        <path d="M11.2341 8.66777V7.18017H14.6359V4.91357H5.37271V7.18017H8.77491V8.66657C6.00991 8.79357 3.93091 9.34117 3.93091 9.99717C3.93091 10.6532 6.01091 11.2008 8.77491 11.3286V16.0936H11.2349V11.3282C13.9949 11.2008 16.0697 10.6536 16.0697 9.99817C16.0697 9.34277 13.9949 8.79557 11.2349 8.66817M11.2349 10.9246V10.9234C11.1655 10.9278 10.8089 10.9492 10.0149 10.9492C9.38011 10.9492 8.93351 10.9312 8.77611 10.923V10.925C6.33331 10.8168 4.50991 10.3914 4.50991 9.88237C4.50991 9.37337 6.33351 8.94857 8.77611 8.84017V10.5012C8.93611 10.5122 9.39371 10.5392 10.0253 10.5392C10.7839 10.5392 11.1653 10.5076 11.2353 10.5012V8.84017C13.6733 8.94877 15.4925 9.37457 15.4925 9.88177C15.4925 10.389 13.6725 10.815 11.2353 10.9236" fill="white"/>
    </g>
    <defs>
        <clipPath id="clip0_161_2387">
            <rect width="20" height="20" fill="white"/>
        </clipPath>
    </defs>
</svg>