<svg width="200" height="120" viewBox="0 0 200 120" fill="none" xmlns="http://www.w3.org/2000/svg">
<path fill-rule="evenodd" clip-rule="evenodd" d="M117.52 79.5015H81.4809C80.6632 79.5015 80.0004 78.8386 80.0004 78.0208V41.9797C80.0004 41.1619 80.6632 40.4994 81.4809 40.4994H117.52C118.337 40.4994 119 41.1619 119 41.9797V78.0208C119 78.8386 118.337 79.5015 117.52 79.5015ZM110.582 52.7655H107.513C107.382 52.7655 107.276 52.87 107.276 52.9988V66.9986C107.276 67.1263 107.382 67.2308 107.513 67.2308H110.582C110.712 67.2308 110.82 67.1263 110.82 66.9986V52.9988C110.82 52.87 110.712 52.7655 110.582 52.7655ZM100.105 52.7655H88.4183C88.2869 52.7655 88.1813 52.87 88.1813 52.9988V66.9986C88.1813 67.1263 88.2869 67.2308 88.4183 67.2308H91.4872C91.6178 67.2308 91.7261 67.1263 91.7261 66.9986V56.0108C91.7261 55.8839 91.8317 55.7787 91.9631 55.7787H98.5738C100.433 55.7787 100.96 57.2026 100.96 58.1211V66.9986C100.96 67.1263 101.067 67.2308 101.199 67.2308H104.266C104.396 67.2308 104.503 67.1263 104.503 66.9986V57.0671C104.503 56.2478 104.405 55.0699 103.348 54.033C102.242 52.9506 101.233 52.7655 100.105 52.7655ZM94.7336 58.3418H97.9556C98.0858 58.3418 98.1926 58.4463 98.1926 58.5743V66.9999C98.1926 67.1271 98.0858 67.2316 97.9556 67.2316H94.7336C94.6023 67.2316 94.4944 67.1271 94.4944 66.9999V58.5743C94.4944 58.4463 94.6023 58.3418 94.7336 58.3418Z" fill="white"/>
</svg>
