<svg width="24" height="24" viewBox="0 0 24 24" fill="none" xmlns="http://www.w3.org/2000/svg">
<path d="M20.8207 8.39924C20.8207 8.39924 20.6449 7.15823 20.1035 6.61331C19.418 5.89612 18.6516 5.8926 18.3 5.85041C15.7828 5.6676 12.0035 5.6676 12.0035 5.6676H11.9965C11.9965 5.6676 8.21719 5.6676 5.7 5.85041C5.34844 5.8926 4.58203 5.89612 3.89648 6.61331C3.35508 7.15823 3.18281 8.39924 3.18281 8.39924C3.18281 8.39924 3 9.85823 3 11.3137V12.6778C3 14.1332 3.1793 15.5922 3.1793 15.5922C3.1793 15.5922 3.35508 16.8332 3.89297 17.3781C4.57852 18.0953 5.47852 18.0707 5.8793 18.1481C7.3207 18.2852 12 18.3274 12 18.3274C12 18.3274 15.7828 18.3203 18.3 18.141C18.6516 18.0989 19.418 18.0953 20.1035 17.3781C20.6449 16.8332 20.8207 15.5922 20.8207 15.5922C20.8207 15.5922 21 14.1367 21 12.6778V11.3137C21 9.85823 20.8207 8.39924 20.8207 8.39924ZM10.1402 14.3336V9.27463L15.0023 11.8129L10.1402 14.3336Z" fill="white"/>
</svg>
